<mxfile host="app.diagrams.net" modified="2024-01-22T08:54:03.121Z" agent="Mozilla/5.0 (Macintosh; Intel Mac OS X 10_15_7) AppleWebKit/537.36 (KHTML, like Gecko) Chrome/120.0.0.0 Safari/537.36" etag="HSSjI1IHkVTqGlZcsCeB" version="22.1.21" type="github">
  <diagram name="Page-1" id="c7558073-3199-34d8-9f00-42111426c3f3">
    <mxGraphModel dx="1434" dy="687" grid="1" gridSize="10" guides="1" tooltips="1" connect="1" arrows="1" fold="1" page="1" pageScale="1" pageWidth="826" pageHeight="1169" background="none" math="0" shadow="0">
      <root>
        <mxCell id="0" />
        <mxCell id="1" parent="0" />
        <mxCell id="5" value="RequestQueue" style="shape=process;whiteSpace=wrap;align=center;verticalAlign=middle;size=0.0475;fontStyle=1;strokeWidth=3;fillColor=#FFCCCC" parent="1" vertex="1">
          <mxGeometry x="201" y="391" width="279" height="50" as="geometry" />
        </mxCell>
        <mxCell id="vyJmEnZ8oGHXoSdKumqi-96" value="&lt;p style=&quot;margin: 0px; margin-top: 4px; text-align: center; text-decoration: underline;&quot;&gt;&lt;strong&gt;CameraServer&lt;/strong&gt;&lt;/p&gt;&lt;hr&gt;&lt;p style=&quot;margin: 0px; margin-left: 8px;&quot;&gt;Manage Request&lt;/p&gt;" style="verticalAlign=middle;align=center;overflow=fill;fontSize=12;fontFamily=Helvetica;html=1;rounded=1;fontStyle=1;strokeWidth=3;fillColor=#E6FFCC" vertex="1" parent="1">
          <mxGeometry x="201" y="520" width="129" height="60" as="geometry" />
        </mxCell>
        <mxCell id="vyJmEnZ8oGHXoSdKumqi-97" value="enqueue&#xa;request" style="text;spacingTop=-5;align=center" vertex="1" parent="1">
          <mxGeometry x="190" y="470" width="81" height="20" as="geometry" />
        </mxCell>
        <mxCell id="vyJmEnZ8oGHXoSdKumqi-99" value="" style="edgeStyle=elbowEdgeStyle;elbow=horizontal;strokeColor=#990000;strokeWidth=2" edge="1" parent="1">
          <mxGeometry width="100" height="100" relative="1" as="geometry">
            <mxPoint x="265" y="515" as="sourcePoint" />
            <mxPoint x="265" y="445" as="targetPoint" />
            <Array as="points" />
          </mxGeometry>
        </mxCell>
        <mxCell id="vyJmEnZ8oGHXoSdKumqi-101" value="dequeue&#xa;request" style="text;spacingTop=-5;align=center" vertex="1" parent="1">
          <mxGeometry x="410" y="475.5" width="81" height="20" as="geometry" />
        </mxCell>
        <mxCell id="vyJmEnZ8oGHXoSdKumqi-102" value="&lt;p style=&quot;margin: 0px; margin-top: 4px; text-align: center; text-decoration: underline;&quot;&gt;&lt;strong&gt;CameraThread&lt;/strong&gt;&lt;/p&gt;&lt;hr&gt;&lt;p style=&quot;margin: 0px; margin-left: 8px;&quot;&gt;Loop Queue&amp;nbsp;&lt;/p&gt;&lt;p style=&quot;margin: 0px; margin-left: 8px;&quot;&gt;Dequeue Request&lt;/p&gt;" style="verticalAlign=middle;align=center;overflow=fill;fontSize=12;fontFamily=Helvetica;html=1;rounded=1;fontStyle=1;strokeWidth=3;fillColor=#E6FFCC" vertex="1" parent="1">
          <mxGeometry x="359" y="520" width="122" height="60" as="geometry" />
        </mxCell>
        <mxCell id="vyJmEnZ8oGHXoSdKumqi-106" value="ChrCamManager" style="whiteSpace=wrap;align=center;verticalAlign=middle;fontStyle=1;strokeWidth=3;fillColor=#FFFFCC" vertex="1" parent="1">
          <mxGeometry x="20" y="520" width="110" height="60" as="geometry" />
        </mxCell>
        <mxCell id="vyJmEnZ8oGHXoSdKumqi-107" value="" style="edgeStyle=none;noEdgeStyle=1;strokeColor=#990000;strokeWidth=2" edge="1" parent="1">
          <mxGeometry width="100" height="100" relative="1" as="geometry">
            <mxPoint x="131" y="549.5" as="sourcePoint" />
            <mxPoint x="201" y="550" as="targetPoint" />
          </mxGeometry>
        </mxCell>
        <mxCell id="vyJmEnZ8oGHXoSdKumqi-108" value="create&#xa;request" style="text;spacingTop=-5;align=center" vertex="1" parent="1">
          <mxGeometry x="120" y="520" width="81" height="20" as="geometry" />
        </mxCell>
        <mxCell id="vyJmEnZ8oGHXoSdKumqi-109" value="" style="edgeStyle=elbowEdgeStyle;elbow=horizontal;strokeColor=#990000;strokeWidth=2" edge="1" parent="1">
          <mxGeometry width="100" height="100" relative="1" as="geometry">
            <mxPoint x="413" y="460.5" as="sourcePoint" />
            <mxPoint x="413" y="515.5" as="targetPoint" />
            <Array as="points">
              <mxPoint x="413" y="444.5" />
            </Array>
          </mxGeometry>
        </mxCell>
        <mxCell id="vyJmEnZ8oGHXoSdKumqi-110" value="Framework&#xa;Camera2 API" style="whiteSpace=wrap;align=center;verticalAlign=middle;fontStyle=1;strokeWidth=3;fillColor=#FFFFCC" vertex="1" parent="1">
          <mxGeometry x="555" y="391" width="90" height="189" as="geometry" />
        </mxCell>
        <mxCell id="vyJmEnZ8oGHXoSdKumqi-111" value="" style="edgeStyle=none;noEdgeStyle=1;strokeColor=#990000;strokeWidth=2" edge="1" parent="1">
          <mxGeometry width="100" height="100" relative="1" as="geometry">
            <mxPoint x="481" y="549.5" as="sourcePoint" />
            <mxPoint x="551" y="550" as="targetPoint" />
          </mxGeometry>
        </mxCell>
        <mxCell id="vyJmEnZ8oGHXoSdKumqi-112" value="perform&#xa;request" style="text;spacingTop=-5;align=center" vertex="1" parent="1">
          <mxGeometry x="474" y="520" width="81" height="20" as="geometry" />
        </mxCell>
      </root>
    </mxGraphModel>
  </diagram>
</mxfile>
